<mxfile host="Electron" agent="Mozilla/5.0 (Windows NT 10.0; Win64; x64) AppleWebKit/537.36 (KHTML, like Gecko) draw.io/26.0.16 Chrome/132.0.6834.196 Electron/34.2.0 Safari/537.36" version="26.0.16">
  <diagram name="Page-1" id="H6sotV8G4gFYmd9BdbEy">
    <mxGraphModel dx="4468" dy="1672" grid="1" gridSize="10" guides="1" tooltips="1" connect="1" arrows="1" fold="1" page="0" pageScale="1" pageWidth="850" pageHeight="1100" math="0" shadow="1">
      <root>
        <mxCell id="0" />
        <mxCell id="1" parent="0" />
        <mxCell id="5Ua5rcUVpoXOftG5lJb_-10" value="LLM" style="rounded=1;whiteSpace=wrap;html=1;fillColor=#e1d5e7;strokeColor=#9673a6;" parent="1" vertex="1">
          <mxGeometry x="-200" y="910" width="120" height="60" as="geometry" />
        </mxCell>
        <mxCell id="5Ua5rcUVpoXOftG5lJb_-22" style="edgeStyle=none;curved=1;rounded=0;orthogonalLoop=1;jettySize=auto;html=1;fontSize=12;startSize=8;endSize=8;exitX=1;exitY=0.5;exitDx=0;exitDy=0;entryX=0;entryY=0.5;entryDx=0;entryDy=0;" parent="1" source="5Ua5rcUVpoXOftG5lJb_-8" target="5Ua5rcUVpoXOftG5lJb_-10" edge="1">
          <mxGeometry relative="1" as="geometry" />
        </mxCell>
        <mxCell id="5Ua5rcUVpoXOftG5lJb_-11" value="WikiData" style="rounded=1;whiteSpace=wrap;html=1;fillColor=#e1d5e7;strokeColor=#9673a6;" parent="1" vertex="1">
          <mxGeometry x="-200" y="800" width="120" height="60" as="geometry" />
        </mxCell>
        <mxCell id="5Ua5rcUVpoXOftG5lJb_-24" style="edgeStyle=none;curved=1;rounded=0;orthogonalLoop=1;jettySize=auto;html=1;fontSize=12;startSize=8;endSize=8;exitX=1;exitY=0.5;exitDx=0;exitDy=0;entryX=0;entryY=0.5;entryDx=0;entryDy=0;" parent="1" source="5Ua5rcUVpoXOftG5lJb_-23" target="5Ua5rcUVpoXOftG5lJb_-11" edge="1">
          <mxGeometry relative="1" as="geometry" />
        </mxCell>
        <mxCell id="64utWBgrm8SAmqTdPt5K-1" value="WICHAT" style="shape=umlFrame;whiteSpace=wrap;html=1;pointerEvents=0;recursiveResize=0;container=1;collapsible=0;width=160;fillColor=#d5e8d4;strokeColor=#82b366;" parent="1" vertex="1">
          <mxGeometry x="-950" y="419" width="690" height="581" as="geometry" />
        </mxCell>
        <mxCell id="5Ua5rcUVpoXOftG5lJb_-6" value="Gateway" style="rounded=0;whiteSpace=wrap;html=1;fillColor=#d5e8d4;strokeColor=#82b366;" parent="64utWBgrm8SAmqTdPt5K-1" vertex="1">
          <mxGeometry x="170" y="131" width="120" height="60" as="geometry" />
        </mxCell>
        <mxCell id="5Ua5rcUVpoXOftG5lJb_-30" value="Authentication Service" style="rounded=0;whiteSpace=wrap;html=1;fillColor=#fff2cc;strokeColor=#d6b656;" parent="64utWBgrm8SAmqTdPt5K-1" vertex="1">
          <mxGeometry x="30" y="381" width="120" height="60" as="geometry" />
        </mxCell>
        <mxCell id="5Ua5rcUVpoXOftG5lJb_-32" style="edgeStyle=none;curved=1;rounded=0;orthogonalLoop=1;jettySize=auto;html=1;fontSize=12;startSize=8;endSize=8;exitX=0.5;exitY=1;exitDx=0;exitDy=0;entryX=0.5;entryY=0;entryDx=0;entryDy=0;" parent="64utWBgrm8SAmqTdPt5K-1" source="5Ua5rcUVpoXOftG5lJb_-6" target="5Ua5rcUVpoXOftG5lJb_-30" edge="1">
          <mxGeometry relative="1" as="geometry" />
        </mxCell>
        <mxCell id="5Ua5rcUVpoXOftG5lJb_-1" value="DB" style="shape=datastore;whiteSpace=wrap;html=1;fillColor=#ffe6cc;strokeColor=#d79b00;" parent="64utWBgrm8SAmqTdPt5K-1" vertex="1">
          <mxGeometry x="30" y="501" width="60" height="60" as="geometry" />
        </mxCell>
        <mxCell id="5Ua5rcUVpoXOftG5lJb_-31" style="edgeStyle=none;curved=1;rounded=0;orthogonalLoop=1;jettySize=auto;html=1;fontSize=12;startSize=8;endSize=8;" parent="64utWBgrm8SAmqTdPt5K-1" source="5Ua5rcUVpoXOftG5lJb_-30" target="5Ua5rcUVpoXOftG5lJb_-1" edge="1">
          <mxGeometry relative="1" as="geometry" />
        </mxCell>
        <mxCell id="5Ua5rcUVpoXOftG5lJb_-27" value="Statistics Service" style="rounded=0;whiteSpace=wrap;html=1;fillColor=#fff2cc;strokeColor=#d6b656;" parent="64utWBgrm8SAmqTdPt5K-1" vertex="1">
          <mxGeometry x="170" y="381" width="120" height="60" as="geometry" />
        </mxCell>
        <mxCell id="ApdHQ61tJCly3gABpBAv-35" style="edgeStyle=none;curved=1;rounded=0;orthogonalLoop=1;jettySize=auto;html=1;fontSize=12;startSize=8;endSize=8;entryX=0.5;entryY=0;entryDx=0;entryDy=0;exitX=0.5;exitY=1;exitDx=0;exitDy=0;" parent="64utWBgrm8SAmqTdPt5K-1" source="5Ua5rcUVpoXOftG5lJb_-6" target="5Ua5rcUVpoXOftG5lJb_-27" edge="1">
          <mxGeometry relative="1" as="geometry">
            <mxPoint x="230" y="191" as="sourcePoint" />
          </mxGeometry>
        </mxCell>
        <mxCell id="5Ua5rcUVpoXOftG5lJb_-29" style="edgeStyle=none;curved=1;rounded=0;orthogonalLoop=1;jettySize=auto;html=1;fontSize=12;startSize=8;endSize=8;" parent="64utWBgrm8SAmqTdPt5K-1" source="5Ua5rcUVpoXOftG5lJb_-27" target="5Ua5rcUVpoXOftG5lJb_-1" edge="1">
          <mxGeometry relative="1" as="geometry" />
        </mxCell>
        <mxCell id="xzODQzaztMOLZkM122JL-3" style="rounded=0;orthogonalLoop=1;jettySize=auto;html=1;strokeColor=default;exitX=0.5;exitY=1;exitDx=0;exitDy=0;entryX=0;entryY=0.5;entryDx=0;entryDy=0;" parent="64utWBgrm8SAmqTdPt5K-1" source="ApdHQ61tJCly3gABpBAv-34" target="5Ua5rcUVpoXOftG5lJb_-23" edge="1">
          <mxGeometry relative="1" as="geometry" />
        </mxCell>
        <mxCell id="ApdHQ61tJCly3gABpBAv-34" value="Game Service" style="rounded=0;whiteSpace=wrap;html=1;fillColor=#dae8fc;strokeColor=#6c8ebf;" parent="64utWBgrm8SAmqTdPt5K-1" vertex="1">
          <mxGeometry x="360" y="291" width="120" height="60" as="geometry" />
        </mxCell>
        <mxCell id="ApdHQ61tJCly3gABpBAv-37" style="edgeStyle=none;curved=1;rounded=0;orthogonalLoop=1;jettySize=auto;html=1;fontSize=12;startSize=8;endSize=8;entryX=0.5;entryY=0;entryDx=0;entryDy=0;exitX=0.5;exitY=1;exitDx=0;exitDy=0;" parent="64utWBgrm8SAmqTdPt5K-1" source="5Ua5rcUVpoXOftG5lJb_-6" target="ApdHQ61tJCly3gABpBAv-34" edge="1">
          <mxGeometry relative="1" as="geometry" />
        </mxCell>
        <mxCell id="ApdHQ61tJCly3gABpBAv-41" style="edgeStyle=none;curved=1;rounded=0;orthogonalLoop=1;jettySize=auto;html=1;fontSize=12;startSize=8;endSize=8;exitX=0.5;exitY=1;exitDx=0;exitDy=0;entryX=1;entryY=0.5;entryDx=0;entryDy=0;" parent="64utWBgrm8SAmqTdPt5K-1" source="ApdHQ61tJCly3gABpBAv-34" target="5Ua5rcUVpoXOftG5lJb_-27" edge="1">
          <mxGeometry relative="1" as="geometry" />
        </mxCell>
        <mxCell id="5Ua5rcUVpoXOftG5lJb_-23" value="Questions Service" style="rounded=0;whiteSpace=wrap;html=1;fillColor=#f8cecc;strokeColor=#b85450;" parent="64utWBgrm8SAmqTdPt5K-1" vertex="1">
          <mxGeometry x="540" y="381" width="120" height="60" as="geometry" />
        </mxCell>
        <mxCell id="ApdHQ61tJCly3gABpBAv-36" style="edgeStyle=none;curved=1;rounded=0;orthogonalLoop=1;jettySize=auto;html=1;fontSize=12;startSize=8;endSize=8;exitX=0.5;exitY=1;exitDx=0;exitDy=0;entryX=0.5;entryY=0;entryDx=0;entryDy=0;" parent="64utWBgrm8SAmqTdPt5K-1" source="5Ua5rcUVpoXOftG5lJb_-6" target="5Ua5rcUVpoXOftG5lJb_-23" edge="1">
          <mxGeometry relative="1" as="geometry">
            <Array as="points">
              <mxPoint x="590" y="231" />
            </Array>
          </mxGeometry>
        </mxCell>
        <mxCell id="ApdHQ61tJCly3gABpBAv-39" style="edgeStyle=none;curved=1;rounded=0;orthogonalLoop=1;jettySize=auto;html=1;fontSize=12;startSize=8;endSize=8;exitX=0.5;exitY=1;exitDx=0;exitDy=0;entryX=0;entryY=0.5;entryDx=0;entryDy=0;" parent="64utWBgrm8SAmqTdPt5K-1" source="ApdHQ61tJCly3gABpBAv-34" target="5Ua5rcUVpoXOftG5lJb_-8" edge="1">
          <mxGeometry relative="1" as="geometry" />
        </mxCell>
        <mxCell id="5Ua5rcUVpoXOftG5lJb_-8" value="LLM Service" style="rounded=0;whiteSpace=wrap;html=1;fillColor=#f5f5f5;strokeColor=#666666;fontColor=#333333;" parent="64utWBgrm8SAmqTdPt5K-1" vertex="1">
          <mxGeometry x="540" y="491" width="120" height="60" as="geometry" />
        </mxCell>
        <mxCell id="5Ua5rcUVpoXOftG5lJb_-7" value="WebApp" style="rounded=0;whiteSpace=wrap;html=1;fillColor=#d5e8d4;strokeColor=#82b366;" parent="64utWBgrm8SAmqTdPt5K-1" vertex="1">
          <mxGeometry x="170" y="31" width="120" height="60" as="geometry" />
        </mxCell>
        <mxCell id="5Ua5rcUVpoXOftG5lJb_-20" style="edgeStyle=none;curved=1;rounded=0;orthogonalLoop=1;jettySize=auto;html=1;fontSize=12;startSize=8;endSize=8;" parent="64utWBgrm8SAmqTdPt5K-1" source="5Ua5rcUVpoXOftG5lJb_-7" target="5Ua5rcUVpoXOftG5lJb_-6" edge="1">
          <mxGeometry relative="1" as="geometry" />
        </mxCell>
        <mxCell id="ApdHQ61tJCly3gABpBAv-9" style="edgeStyle=none;curved=1;rounded=0;orthogonalLoop=1;jettySize=auto;html=1;fontSize=12;startSize=8;endSize=8;" parent="64utWBgrm8SAmqTdPt5K-1" source="5Ua5rcUVpoXOftG5lJb_-7" target="5Ua5rcUVpoXOftG5lJb_-6" edge="1">
          <mxGeometry relative="1" as="geometry" />
        </mxCell>
        <mxCell id="64utWBgrm8SAmqTdPt5K-24" value="Clients" style="shape=umlFrame;whiteSpace=wrap;html=1;pointerEvents=0;fillColor=#fff2cc;strokeColor=#d6b656;" parent="1" vertex="1">
          <mxGeometry x="-810" y="299.5" width="290" height="110" as="geometry" />
        </mxCell>
        <mxCell id="5Ua5rcUVpoXOftG5lJb_-2" value="API User" style="shape=umlActor;verticalLabelPosition=bottom;verticalAlign=top;html=1;outlineConnect=0;" parent="1" vertex="1">
          <mxGeometry x="-580" y="324.5" width="30" height="60" as="geometry" />
        </mxCell>
        <mxCell id="5Ua5rcUVpoXOftG5lJb_-3" value="Player" style="shape=umlActor;verticalLabelPosition=bottom;verticalAlign=top;html=1;outlineConnect=0;" parent="1" vertex="1">
          <mxGeometry x="-735" y="324.5" width="30" height="60" as="geometry" />
        </mxCell>
        <mxCell id="ApdHQ61tJCly3gABpBAv-8" style="edgeStyle=none;curved=1;rounded=0;orthogonalLoop=1;jettySize=auto;html=1;fontSize=12;startSize=8;endSize=8;" parent="1" source="5Ua5rcUVpoXOftG5lJb_-3" target="5Ua5rcUVpoXOftG5lJb_-7" edge="1">
          <mxGeometry relative="1" as="geometry" />
        </mxCell>
        <mxCell id="64utWBgrm8SAmqTdPt5K-28" value="" style="edgeStyle=none;curved=1;rounded=0;orthogonalLoop=1;jettySize=auto;html=1;fontSize=12;startSize=8;endSize=8;entryX=0.5;entryY=0;entryDx=0;entryDy=0;" parent="1" source="5Ua5rcUVpoXOftG5lJb_-2" target="5Ua5rcUVpoXOftG5lJb_-6" edge="1">
          <mxGeometry relative="1" as="geometry">
            <mxPoint x="-720" y="360" as="sourcePoint" />
            <mxPoint x="-720" y="590" as="targetPoint" />
            <Array as="points">
              <mxPoint x="-570" y="510" />
            </Array>
          </mxGeometry>
        </mxCell>
        <mxCell id="64utWBgrm8SAmqTdPt5K-29" value="External Providers" style="shape=umlFrame;whiteSpace=wrap;html=1;pointerEvents=0;fillColor=#e1d5e7;strokeColor=#9673a6;width=80;height=30;" parent="1" vertex="1">
          <mxGeometry x="-220" y="760" width="150" height="220" as="geometry" />
        </mxCell>
        <mxCell id="3EcRKwDYf2YUiH32k3Rl-5" value="WICHAT" style="shape=umlFrame;whiteSpace=wrap;html=1;pointerEvents=0;recursiveResize=0;container=1;collapsible=0;width=160;fillColor=#d5e8d4;strokeColor=#82b366;" parent="1" vertex="1">
          <mxGeometry x="70" y="240" width="690" height="760" as="geometry" />
        </mxCell>
        <mxCell id="3EcRKwDYf2YUiH32k3Rl-95" style="edgeStyle=orthogonalEdgeStyle;rounded=0;orthogonalLoop=1;jettySize=auto;html=1;" parent="3EcRKwDYf2YUiH32k3Rl-5" source="3EcRKwDYf2YUiH32k3Rl-6" target="3EcRKwDYf2YUiH32k3Rl-58" edge="1">
          <mxGeometry relative="1" as="geometry" />
        </mxCell>
        <mxCell id="3EcRKwDYf2YUiH32k3Rl-6" value="Gateway" style="rounded=0;whiteSpace=wrap;html=1;fillColor=#d5e8d4;strokeColor=#82b366;" parent="3EcRKwDYf2YUiH32k3Rl-5" vertex="1">
          <mxGeometry x="285" y="20.5" width="120" height="60" as="geometry" />
        </mxCell>
        <mxCell id="3EcRKwDYf2YUiH32k3Rl-9" value="DB" style="shape=datastore;whiteSpace=wrap;html=1;fillColor=#ffe6cc;strokeColor=#d79b00;" parent="3EcRKwDYf2YUiH32k3Rl-5" vertex="1">
          <mxGeometry x="120" y="670" width="60" height="60" as="geometry" />
        </mxCell>
        <mxCell id="3EcRKwDYf2YUiH32k3Rl-31" value="Authentication Service" style="shape=umlFrame;whiteSpace=wrap;html=1;pointerEvents=0;fillColor=#fff2cc;strokeColor=#d6b656;fillStyle=auto;width=100;height=40;" parent="3EcRKwDYf2YUiH32k3Rl-5" vertex="1">
          <mxGeometry x="40" y="130" width="620" height="490" as="geometry" />
        </mxCell>
        <mxCell id="3EcRKwDYf2YUiH32k3Rl-55" value="Data Model" style="rounded=0;whiteSpace=wrap;html=1;fillColor=#f8cecc;strokeColor=#b85450;" parent="3EcRKwDYf2YUiH32k3Rl-5" vertex="1">
          <mxGeometry x="90" y="440" width="120" height="60" as="geometry" />
        </mxCell>
        <mxCell id="533iNDBv2jlLNDhChat5-3" style="edgeStyle=orthogonalEdgeStyle;rounded=0;orthogonalLoop=1;jettySize=auto;html=1;" parent="3EcRKwDYf2YUiH32k3Rl-5" source="3EcRKwDYf2YUiH32k3Rl-58" target="3EcRKwDYf2YUiH32k3Rl-65" edge="1">
          <mxGeometry relative="1" as="geometry" />
        </mxCell>
        <mxCell id="533iNDBv2jlLNDhChat5-4" style="edgeStyle=orthogonalEdgeStyle;rounded=0;orthogonalLoop=1;jettySize=auto;html=1;" parent="3EcRKwDYf2YUiH32k3Rl-5" source="3EcRKwDYf2YUiH32k3Rl-58" target="533iNDBv2jlLNDhChat5-1" edge="1">
          <mxGeometry relative="1" as="geometry">
            <Array as="points">
              <mxPoint x="345" y="220" />
              <mxPoint x="510" y="220" />
            </Array>
          </mxGeometry>
        </mxCell>
        <mxCell id="533iNDBv2jlLNDhChat5-5" style="edgeStyle=orthogonalEdgeStyle;rounded=0;orthogonalLoop=1;jettySize=auto;html=1;" parent="3EcRKwDYf2YUiH32k3Rl-5" source="3EcRKwDYf2YUiH32k3Rl-58" target="3EcRKwDYf2YUiH32k3Rl-68" edge="1">
          <mxGeometry relative="1" as="geometry">
            <Array as="points">
              <mxPoint x="345" y="220" />
              <mxPoint x="180" y="220" />
            </Array>
          </mxGeometry>
        </mxCell>
        <mxCell id="3EcRKwDYf2YUiH32k3Rl-58" value="Server&lt;div&gt;(Express.js)&lt;/div&gt;" style="rounded=0;whiteSpace=wrap;html=1;fillColor=#dae8fc;strokeColor=#6c8ebf;" parent="3EcRKwDYf2YUiH32k3Rl-5" vertex="1">
          <mxGeometry x="285" y="140" width="120" height="60" as="geometry" />
        </mxCell>
        <mxCell id="3EcRKwDYf2YUiH32k3Rl-94" style="edgeStyle=orthogonalEdgeStyle;rounded=0;orthogonalLoop=1;jettySize=auto;html=1;entryX=0.5;entryY=0;entryDx=0;entryDy=0;exitX=0.5;exitY=1;exitDx=0;exitDy=0;" parent="3EcRKwDYf2YUiH32k3Rl-5" source="3EcRKwDYf2YUiH32k3Rl-60" target="3EcRKwDYf2YUiH32k3Rl-9" edge="1">
          <mxGeometry relative="1" as="geometry" />
        </mxCell>
        <mxCell id="3EcRKwDYf2YUiH32k3Rl-97" style="edgeStyle=orthogonalEdgeStyle;rounded=0;orthogonalLoop=1;jettySize=auto;html=1;" parent="3EcRKwDYf2YUiH32k3Rl-5" source="3EcRKwDYf2YUiH32k3Rl-60" target="3EcRKwDYf2YUiH32k3Rl-55" edge="1">
          <mxGeometry relative="1" as="geometry" />
        </mxCell>
        <mxCell id="3EcRKwDYf2YUiH32k3Rl-60" value="Database Adapter&lt;div&gt;(Mongoose)&lt;/div&gt;" style="rounded=0;whiteSpace=wrap;html=1;fillColor=#fff2cc;strokeColor=#d6b656;" parent="3EcRKwDYf2YUiH32k3Rl-5" vertex="1">
          <mxGeometry x="90" y="530" width="120" height="60" as="geometry" />
        </mxCell>
        <mxCell id="533iNDBv2jlLNDhChat5-10" style="edgeStyle=orthogonalEdgeStyle;rounded=0;orthogonalLoop=1;jettySize=auto;html=1;" parent="3EcRKwDYf2YUiH32k3Rl-5" source="3EcRKwDYf2YUiH32k3Rl-65" target="3EcRKwDYf2YUiH32k3Rl-62" edge="1">
          <mxGeometry relative="1" as="geometry">
            <Array as="points">
              <mxPoint x="345" y="400" />
              <mxPoint x="510" y="400" />
              <mxPoint x="510" y="500" />
            </Array>
          </mxGeometry>
        </mxCell>
        <mxCell id="3EcRKwDYf2YUiH32k3Rl-65" value="Login Handler" style="whiteSpace=wrap;html=1;fillColor=#e1d5e7;strokeColor=#9673a6;" parent="3EcRKwDYf2YUiH32k3Rl-5" vertex="1">
          <mxGeometry x="285" y="280" width="120" height="60" as="geometry" />
        </mxCell>
        <mxCell id="533iNDBv2jlLNDhChat5-7" style="edgeStyle=orthogonalEdgeStyle;rounded=0;orthogonalLoop=1;jettySize=auto;html=1;" parent="3EcRKwDYf2YUiH32k3Rl-5" source="3EcRKwDYf2YUiH32k3Rl-68" target="3EcRKwDYf2YUiH32k3Rl-55" edge="1">
          <mxGeometry relative="1" as="geometry">
            <Array as="points">
              <mxPoint x="180" y="400" />
              <mxPoint x="150" y="400" />
            </Array>
          </mxGeometry>
        </mxCell>
        <mxCell id="533iNDBv2jlLNDhChat5-8" style="edgeStyle=orthogonalEdgeStyle;rounded=0;orthogonalLoop=1;jettySize=auto;html=1;entryX=1;entryY=0.5;entryDx=0;entryDy=0;" parent="3EcRKwDYf2YUiH32k3Rl-5" source="3EcRKwDYf2YUiH32k3Rl-68" target="533iNDBv2jlLNDhChat5-16" edge="1">
          <mxGeometry relative="1" as="geometry">
            <Array as="points">
              <mxPoint x="180" y="400" />
              <mxPoint x="510" y="400" />
              <mxPoint x="510" y="570" />
            </Array>
          </mxGeometry>
        </mxCell>
        <mxCell id="3EcRKwDYf2YUiH32k3Rl-68" value="Register Handler" style="whiteSpace=wrap;html=1;fillColor=#e1d5e7;strokeColor=#9673a6;" parent="3EcRKwDYf2YUiH32k3Rl-5" vertex="1">
          <mxGeometry x="120" y="280" width="120" height="60" as="geometry" />
        </mxCell>
        <mxCell id="3EcRKwDYf2YUiH32k3Rl-62" value="Encryption Utilities&lt;div&gt;(Argon2/JWT)&lt;/div&gt;" style="whiteSpace=wrap;html=1;fillColor=#f5f5f5;strokeColor=#666666;fontColor=#333333;" parent="3EcRKwDYf2YUiH32k3Rl-5" vertex="1">
          <mxGeometry x="380" y="470" width="120" height="60" as="geometry" />
        </mxCell>
        <mxCell id="533iNDBv2jlLNDhChat5-18" style="edgeStyle=orthogonalEdgeStyle;rounded=0;orthogonalLoop=1;jettySize=auto;html=1;entryX=0;entryY=0.5;entryDx=0;entryDy=0;" parent="3EcRKwDYf2YUiH32k3Rl-5" source="533iNDBv2jlLNDhChat5-1" target="533iNDBv2jlLNDhChat5-12" edge="1">
          <mxGeometry relative="1" as="geometry">
            <Array as="points">
              <mxPoint x="510" y="570" />
            </Array>
          </mxGeometry>
        </mxCell>
        <mxCell id="533iNDBv2jlLNDhChat5-1" value="Verify Handler" style="whiteSpace=wrap;html=1;fillColor=#e1d5e7;strokeColor=#9673a6;" parent="3EcRKwDYf2YUiH32k3Rl-5" vertex="1">
          <mxGeometry x="450" y="280" width="120" height="60" as="geometry" />
        </mxCell>
        <mxCell id="533iNDBv2jlLNDhChat5-12" value="Configuration" style="whiteSpace=wrap;html=1;fillColor=#f5f5f5;fontColor=#333333;strokeColor=#666666;" parent="3EcRKwDYf2YUiH32k3Rl-5" vertex="1">
          <mxGeometry x="520" y="540" width="120" height="60" as="geometry" />
        </mxCell>
        <mxCell id="533iNDBv2jlLNDhChat5-16" value="Validators" style="whiteSpace=wrap;html=1;fillColor=#f5f5f5;fontColor=#333333;strokeColor=#666666;" parent="3EcRKwDYf2YUiH32k3Rl-5" vertex="1">
          <mxGeometry x="380" y="540" width="120" height="60" as="geometry" />
        </mxCell>
        <mxCell id="3EcRKwDYf2YUiH32k3Rl-236" value="WICHAT" style="shape=umlFrame;whiteSpace=wrap;html=1;pointerEvents=0;recursiveResize=0;container=1;collapsible=0;width=160;fillColor=#d5e8d4;strokeColor=#82b366;" parent="1" vertex="1">
          <mxGeometry x="990" y="490" width="580" height="520" as="geometry" />
        </mxCell>
        <mxCell id="3EcRKwDYf2YUiH32k3Rl-237" style="edgeStyle=orthogonalEdgeStyle;rounded=0;orthogonalLoop=1;jettySize=auto;html=1;" parent="3EcRKwDYf2YUiH32k3Rl-236" source="3EcRKwDYf2YUiH32k3Rl-238" target="3EcRKwDYf2YUiH32k3Rl-244" edge="1">
          <mxGeometry relative="1" as="geometry" />
        </mxCell>
        <mxCell id="3EcRKwDYf2YUiH32k3Rl-238" value="Gateway" style="rounded=0;whiteSpace=wrap;html=1;fillColor=#d5e8d4;strokeColor=#82b366;" parent="3EcRKwDYf2YUiH32k3Rl-236" vertex="1">
          <mxGeometry x="170" y="20.5" width="120" height="60" as="geometry" />
        </mxCell>
        <mxCell id="3EcRKwDYf2YUiH32k3Rl-240" value="Questions Service" style="shape=umlFrame;whiteSpace=wrap;html=1;pointerEvents=0;fillColor=#fff2cc;strokeColor=#d6b656;fillStyle=auto;width=80;height=40;" parent="3EcRKwDYf2YUiH32k3Rl-236" vertex="1">
          <mxGeometry x="30" y="130" width="520" height="360" as="geometry" />
        </mxCell>
        <mxCell id="3EcRKwDYf2YUiH32k3Rl-268" style="edgeStyle=orthogonalEdgeStyle;rounded=0;orthogonalLoop=1;jettySize=auto;html=1;" parent="3EcRKwDYf2YUiH32k3Rl-236" source="3EcRKwDYf2YUiH32k3Rl-244" target="3EcRKwDYf2YUiH32k3Rl-265" edge="1">
          <mxGeometry relative="1" as="geometry" />
        </mxCell>
        <mxCell id="3EcRKwDYf2YUiH32k3Rl-244" value="Express.js Server" style="rounded=0;whiteSpace=wrap;html=1;fillColor=#dae8fc;strokeColor=#6c8ebf;" parent="3EcRKwDYf2YUiH32k3Rl-236" vertex="1">
          <mxGeometry x="245" y="150" width="120" height="60" as="geometry" />
        </mxCell>
        <mxCell id="3EcRKwDYf2YUiH32k3Rl-259" style="edgeStyle=orthogonalEdgeStyle;rounded=0;orthogonalLoop=1;jettySize=auto;html=1;" parent="3EcRKwDYf2YUiH32k3Rl-236" source="3EcRKwDYf2YUiH32k3Rl-258" target="3EcRKwDYf2YUiH32k3Rl-244" edge="1">
          <mxGeometry relative="1" as="geometry" />
        </mxCell>
        <mxCell id="3EcRKwDYf2YUiH32k3Rl-258" value="Game Service" style="rounded=0;whiteSpace=wrap;html=1;fillColor=#d5e8d4;strokeColor=#82b366;" parent="3EcRKwDYf2YUiH32k3Rl-236" vertex="1">
          <mxGeometry x="330" y="20.5" width="120" height="60" as="geometry" />
        </mxCell>
        <mxCell id="3EcRKwDYf2YUiH32k3Rl-271" style="edgeStyle=orthogonalEdgeStyle;rounded=0;orthogonalLoop=1;jettySize=auto;html=1;" parent="3EcRKwDYf2YUiH32k3Rl-236" source="3EcRKwDYf2YUiH32k3Rl-265" target="3EcRKwDYf2YUiH32k3Rl-261" edge="1">
          <mxGeometry relative="1" as="geometry">
            <Array as="points">
              <mxPoint x="305" y="410" />
            </Array>
          </mxGeometry>
        </mxCell>
        <mxCell id="3EcRKwDYf2YUiH32k3Rl-272" style="edgeStyle=orthogonalEdgeStyle;rounded=0;orthogonalLoop=1;jettySize=auto;html=1;" parent="3EcRKwDYf2YUiH32k3Rl-236" source="3EcRKwDYf2YUiH32k3Rl-265" target="3EcRKwDYf2YUiH32k3Rl-266" edge="1">
          <mxGeometry relative="1" as="geometry">
            <Array as="points">
              <mxPoint x="305" y="410" />
            </Array>
          </mxGeometry>
        </mxCell>
        <mxCell id="3EcRKwDYf2YUiH32k3Rl-265" value="Questions Module" style="whiteSpace=wrap;html=1;fillColor=#e1d5e7;strokeColor=#9673a6;" parent="3EcRKwDYf2YUiH32k3Rl-236" vertex="1">
          <mxGeometry x="245" y="260" width="120" height="60" as="geometry" />
        </mxCell>
        <mxCell id="3EcRKwDYf2YUiH32k3Rl-261" value="WikiData Adapter" style="whiteSpace=wrap;html=1;fillColor=#f5f5f5;strokeColor=#666666;fontColor=#333333;" parent="3EcRKwDYf2YUiH32k3Rl-236" vertex="1">
          <mxGeometry x="400" y="380" width="120" height="60" as="geometry" />
        </mxCell>
        <mxCell id="3EcRKwDYf2YUiH32k3Rl-266" value="Questions Cache" style="shape=datastore;whiteSpace=wrap;html=1;fillColor=#ffe6cc;strokeColor=#d79b00;" parent="3EcRKwDYf2YUiH32k3Rl-236" vertex="1">
          <mxGeometry x="100" y="380" width="70" height="60" as="geometry" />
        </mxCell>
        <mxCell id="3EcRKwDYf2YUiH32k3Rl-273" value="WICHAT" style="shape=umlFrame;whiteSpace=wrap;html=1;pointerEvents=0;recursiveResize=0;container=1;collapsible=0;width=160;fillColor=#d5e8d4;strokeColor=#82b366;" parent="1" vertex="1">
          <mxGeometry x="2190" y="530" width="560" height="480" as="geometry" />
        </mxCell>
        <mxCell id="3EcRKwDYf2YUiH32k3Rl-274" style="edgeStyle=orthogonalEdgeStyle;rounded=0;orthogonalLoop=1;jettySize=auto;html=1;" parent="3EcRKwDYf2YUiH32k3Rl-273" source="3EcRKwDYf2YUiH32k3Rl-275" target="3EcRKwDYf2YUiH32k3Rl-279" edge="1">
          <mxGeometry relative="1" as="geometry" />
        </mxCell>
        <mxCell id="3EcRKwDYf2YUiH32k3Rl-275" value="Gateway" style="rounded=0;whiteSpace=wrap;html=1;fillColor=#d5e8d4;strokeColor=#82b366;" parent="3EcRKwDYf2YUiH32k3Rl-273" vertex="1">
          <mxGeometry x="100" y="50" width="120" height="60" as="geometry" />
        </mxCell>
        <mxCell id="3EcRKwDYf2YUiH32k3Rl-276" value="Game Service" style="shape=umlFrame;whiteSpace=wrap;html=1;pointerEvents=0;fillColor=#fff2cc;strokeColor=#d6b656;fillStyle=auto;width=70;height=40;" parent="3EcRKwDYf2YUiH32k3Rl-273" vertex="1">
          <mxGeometry x="20" y="130" width="460" height="220" as="geometry" />
        </mxCell>
        <mxCell id="3EcRKwDYf2YUiH32k3Rl-277" style="edgeStyle=orthogonalEdgeStyle;rounded=0;orthogonalLoop=1;jettySize=auto;html=1;" parent="3EcRKwDYf2YUiH32k3Rl-273" source="3EcRKwDYf2YUiH32k3Rl-279" target="3EcRKwDYf2YUiH32k3Rl-285" edge="1">
          <mxGeometry relative="1" as="geometry" />
        </mxCell>
        <mxCell id="ZtsSKKbW7c0LSWisESug-2" style="edgeStyle=orthogonalEdgeStyle;rounded=0;orthogonalLoop=1;jettySize=auto;html=1;" parent="3EcRKwDYf2YUiH32k3Rl-273" source="3EcRKwDYf2YUiH32k3Rl-279" target="3EcRKwDYf2YUiH32k3Rl-264" edge="1">
          <mxGeometry relative="1" as="geometry">
            <Array as="points">
              <mxPoint x="160" y="230" />
              <mxPoint x="400" y="230" />
            </Array>
          </mxGeometry>
        </mxCell>
        <mxCell id="3EcRKwDYf2YUiH32k3Rl-279" value="Express.js Server" style="rounded=0;whiteSpace=wrap;html=1;fillColor=#dae8fc;strokeColor=#6c8ebf;" parent="3EcRKwDYf2YUiH32k3Rl-273" vertex="1">
          <mxGeometry x="100" y="150" width="120" height="60" as="geometry" />
        </mxCell>
        <mxCell id="3EcRKwDYf2YUiH32k3Rl-281" value="Questions Service" style="rounded=0;whiteSpace=wrap;html=1;fillColor=#d5e8d4;strokeColor=#82b366;" parent="3EcRKwDYf2YUiH32k3Rl-273" vertex="1">
          <mxGeometry x="20" y="399" width="120" height="60" as="geometry" />
        </mxCell>
        <mxCell id="3EcRKwDYf2YUiH32k3Rl-294" style="edgeStyle=orthogonalEdgeStyle;rounded=0;orthogonalLoop=1;jettySize=auto;html=1;" parent="3EcRKwDYf2YUiH32k3Rl-273" source="3EcRKwDYf2YUiH32k3Rl-285" target="3EcRKwDYf2YUiH32k3Rl-281" edge="1">
          <mxGeometry relative="1" as="geometry" />
        </mxCell>
        <mxCell id="3EcRKwDYf2YUiH32k3Rl-295" style="edgeStyle=orthogonalEdgeStyle;rounded=0;orthogonalLoop=1;jettySize=auto;html=1;" parent="3EcRKwDYf2YUiH32k3Rl-273" source="3EcRKwDYf2YUiH32k3Rl-285" target="3EcRKwDYf2YUiH32k3Rl-293" edge="1">
          <mxGeometry relative="1" as="geometry" />
        </mxCell>
        <mxCell id="3EcRKwDYf2YUiH32k3Rl-285" value="Game Manager" style="whiteSpace=wrap;html=1;fillColor=#e1d5e7;strokeColor=#9673a6;" parent="3EcRKwDYf2YUiH32k3Rl-273" vertex="1">
          <mxGeometry x="100" y="260" width="120" height="60" as="geometry" />
        </mxCell>
        <mxCell id="3EcRKwDYf2YUiH32k3Rl-293" value="Statistics Service" style="rounded=0;whiteSpace=wrap;html=1;fillColor=#d5e8d4;strokeColor=#82b366;" parent="3EcRKwDYf2YUiH32k3Rl-273" vertex="1">
          <mxGeometry x="180" y="399" width="120" height="60" as="geometry" />
        </mxCell>
        <mxCell id="ZtsSKKbW7c0LSWisESug-1" style="edgeStyle=orthogonalEdgeStyle;rounded=0;orthogonalLoop=1;jettySize=auto;html=1;" parent="3EcRKwDYf2YUiH32k3Rl-273" source="3EcRKwDYf2YUiH32k3Rl-264" target="3EcRKwDYf2YUiH32k3Rl-260" edge="1">
          <mxGeometry relative="1" as="geometry" />
        </mxCell>
        <mxCell id="3EcRKwDYf2YUiH32k3Rl-264" value="Hints Module" style="whiteSpace=wrap;html=1;fillColor=#e1d5e7;strokeColor=#9673a6;" parent="3EcRKwDYf2YUiH32k3Rl-273" vertex="1">
          <mxGeometry x="340" y="260" width="120" height="60" as="geometry" />
        </mxCell>
        <mxCell id="3EcRKwDYf2YUiH32k3Rl-260" value="LLM Service" style="rounded=0;whiteSpace=wrap;html=1;fillColor=#d5e8d4;strokeColor=#82b366;" parent="3EcRKwDYf2YUiH32k3Rl-273" vertex="1">
          <mxGeometry x="340" y="399" width="120" height="60" as="geometry" />
        </mxCell>
        <mxCell id="O0v-uqUoTzAAq8tF7ngA-1" value="LLM" style="rounded=1;whiteSpace=wrap;html=1;fillColor=#e1d5e7;strokeColor=#9673a6;" vertex="1" parent="1">
          <mxGeometry x="-1250" y="910" width="120" height="60" as="geometry" />
        </mxCell>
        <mxCell id="O0v-uqUoTzAAq8tF7ngA-3" value="WikiData" style="rounded=1;whiteSpace=wrap;html=1;fillColor=#e1d5e7;strokeColor=#9673a6;" vertex="1" parent="1">
          <mxGeometry x="-1390" y="910" width="120" height="60" as="geometry" />
        </mxCell>
        <mxCell id="O0v-uqUoTzAAq8tF7ngA-25" value="Clients" style="shape=umlFrame;whiteSpace=wrap;html=1;pointerEvents=0;fillColor=#fff2cc;strokeColor=#d6b656;" vertex="1" parent="1">
          <mxGeometry x="-1450" y="560" width="340" height="140" as="geometry" />
        </mxCell>
        <mxCell id="O0v-uqUoTzAAq8tF7ngA-33" style="edgeStyle=orthogonalEdgeStyle;rounded=0;orthogonalLoop=1;jettySize=auto;html=1;" edge="1" parent="1" source="O0v-uqUoTzAAq8tF7ngA-26" target="O0v-uqUoTzAAq8tF7ngA-22">
          <mxGeometry relative="1" as="geometry">
            <Array as="points">
              <mxPoint x="-1220" y="740" />
              <mxPoint x="-1220" y="740" />
            </Array>
          </mxGeometry>
        </mxCell>
        <mxCell id="O0v-uqUoTzAAq8tF7ngA-26" value="API User" style="shape=umlActor;verticalLabelPosition=bottom;verticalAlign=top;html=1;outlineConnect=0;" vertex="1" parent="1">
          <mxGeometry x="-1210" y="595" width="30" height="60" as="geometry" />
        </mxCell>
        <mxCell id="O0v-uqUoTzAAq8tF7ngA-32" style="edgeStyle=orthogonalEdgeStyle;rounded=0;orthogonalLoop=1;jettySize=auto;html=1;" edge="1" parent="1" source="O0v-uqUoTzAAq8tF7ngA-27" target="O0v-uqUoTzAAq8tF7ngA-22">
          <mxGeometry relative="1" as="geometry">
            <Array as="points">
              <mxPoint x="-1290" y="740" />
              <mxPoint x="-1290" y="740" />
            </Array>
          </mxGeometry>
        </mxCell>
        <mxCell id="O0v-uqUoTzAAq8tF7ngA-27" value="Player" style="shape=umlActor;verticalLabelPosition=bottom;verticalAlign=top;html=1;outlineConnect=0;" vertex="1" parent="1">
          <mxGeometry x="-1325" y="595" width="30" height="60" as="geometry" />
        </mxCell>
        <mxCell id="O0v-uqUoTzAAq8tF7ngA-30" value="External Providers" style="shape=umlFrame;whiteSpace=wrap;html=1;pointerEvents=0;fillColor=#e1d5e7;strokeColor=#9673a6;width=80;height=30;" vertex="1" parent="1">
          <mxGeometry x="-1500" y="880" width="400" height="120" as="geometry" />
        </mxCell>
        <mxCell id="O0v-uqUoTzAAq8tF7ngA-35" style="edgeStyle=orthogonalEdgeStyle;rounded=0;orthogonalLoop=1;jettySize=auto;html=1;" edge="1" parent="1" source="O0v-uqUoTzAAq8tF7ngA-22" target="O0v-uqUoTzAAq8tF7ngA-3">
          <mxGeometry relative="1" as="geometry">
            <Array as="points">
              <mxPoint x="-1330" y="860" />
              <mxPoint x="-1330" y="860" />
            </Array>
          </mxGeometry>
        </mxCell>
        <mxCell id="O0v-uqUoTzAAq8tF7ngA-36" style="edgeStyle=orthogonalEdgeStyle;rounded=0;orthogonalLoop=1;jettySize=auto;html=1;" edge="1" parent="1" source="O0v-uqUoTzAAq8tF7ngA-22" target="O0v-uqUoTzAAq8tF7ngA-1">
          <mxGeometry relative="1" as="geometry">
            <Array as="points">
              <mxPoint x="-1190" y="870" />
              <mxPoint x="-1190" y="870" />
            </Array>
          </mxGeometry>
        </mxCell>
        <mxCell id="O0v-uqUoTzAAq8tF7ngA-22" value="&lt;font style=&quot;font-size: 32px;&quot;&gt;WiChat&lt;/font&gt;" style="rounded=0;whiteSpace=wrap;html=1;fillColor=#d5e8d4;strokeColor=#82b366;" vertex="1" parent="1">
          <mxGeometry x="-1350" y="740" width="180" height="90" as="geometry" />
        </mxCell>
        <mxCell id="3EcRKwDYf2YUiH32k3Rl-214" value="External Providers" style="shape=umlFrame;whiteSpace=wrap;html=1;pointerEvents=0;fillColor=#e1d5e7;strokeColor=#9673a6;width=80;height=30;" parent="1" vertex="1">
          <mxGeometry x="1600" y="830" width="160" height="119" as="geometry" />
        </mxCell>
        <mxCell id="3EcRKwDYf2YUiH32k3Rl-216" value="WikiData" style="rounded=1;whiteSpace=wrap;html=1;fillColor=#e1d5e7;strokeColor=#9673a6;" parent="1" vertex="1">
          <mxGeometry x="1620" y="870" width="120" height="60" as="geometry" />
        </mxCell>
        <mxCell id="3EcRKwDYf2YUiH32k3Rl-263" style="edgeStyle=orthogonalEdgeStyle;rounded=0;orthogonalLoop=1;jettySize=auto;html=1;" parent="1" source="3EcRKwDYf2YUiH32k3Rl-261" target="3EcRKwDYf2YUiH32k3Rl-216" edge="1">
          <mxGeometry relative="1" as="geometry">
            <Array as="points">
              <mxPoint x="1670" y="900" />
              <mxPoint x="1670" y="900" />
            </Array>
          </mxGeometry>
        </mxCell>
      </root>
    </mxGraphModel>
  </diagram>
</mxfile>
